<svg xmlns="http://www.w3.org/2000/svg" width="298.0" height="205.87" viewBox="0.0 0.0 298.0 205.87">
  <path d="m 206.019290712,1.22343786273 l 0,48.4092084828 l 21.5216588007,0 c -2.825807004,10.5126041332 -10.0020258842,37.2113441706 -16.68654748,62.0814033835 c -8.57208990379,-34.5046324809 -27.4473768803,-110.493252561 -27.4473768803,-110.493252561 l -45.637799782,0.00264069433126 s -20.4125671815,75.9965421626 -29.6734822017,110.449681104 c -6.17433945091,-24.9624835145 -12.7863739872,-51.6757473707 -15.3516764954,-62.0404726213 l 22.6888456952,0 l 0,-48.4092084828 l -113.780917003,0 l 0,48.4092084828 l 23.5787596848,0 c 2.57045186216,10.2913139482 38.3640072462,153.47715454 38.3640072462,153.47715454 l 64.5689374436,0.00264069433138 s 12.1784861522,-46.291371629 19.5833891615,-74.4424935486 c 7.04497637196,28.1656457384 18.6221764249,74.4398528543 18.6221764249,74.4398528543 l 64.5596950135,0.00264069433138 s 37.7051540105,-143.323684835 40.3722552852,-153.47715454 l 23.4665301758,0 l 0,-48.4092084828 z m 81.425809708,41.0905241434 l -21.7817671923,0 s -39.8982506527,151.668278923 -40.3722552852,153.47715454 l -53.2205535545,0 c -0.454753970806,-1.82868082448 -24.1399072303,-96.5741527399 -24.1399072303,-96.5741527399 s -24.9360765712,94.7745195531 -25.404799815,96.5741527399 l -53.2205535545,0 c -0.459612848376,-1.8408280184 -38.3719293292,-153.47715454 -38.3719293292,-153.47715454 l -21.9639751012,0 l 0,-33.7758008455 l 99.1448686715,0 l 0,33.7758008455 l -24.7168989417,0 l 24.4079377049,98.639175707 s 35.0908666225,-130.611382324 35.5754340323,-132.417617247 l 34.3026193646,0 c 0.462042287161,1.8408280184 32.8898478973,132.404413775 32.8898478973,132.404413775 l 26.4993676154,-98.6338943184 l -23.7398420391,0 l 0,-33.7758008455 l 74.11108641,0 z" fill="#000000" fill-rule="evenodd"/>
</svg>
